<?xml version="1.0" encoding="UTF-8"?> <svg xmlns="http://www.w3.org/2000/svg" viewBox="0 0 64 64"><path d="M40 5c-1.654 0-3 1.346-3 3s1.346 3 3 3 3-1.346 3-3-1.346-3-3-3zm0 4c-.551 0-1-.449-1-1s.449-1 1-1 1 .449 1 1-.449 1-1 1zM24 11c1.654 0 3-1.346 3-3s-1.346-3-3-3-3 1.346-3 3 1.346 3 3 3zm0-4c.551 0 1 .449 1 1s-.449 1-1 1-1-.449-1-1 .449-1 1-1z"></path><path d="M46.918 6.986C46.424 3.606 43.515 1 40 1c-3.86 0-7 3.14-7 7s3.14 7 7 7a6.957 6.957 0 0 0 3.327-.843C49.921 18.13 54 25.291 54 33c0 12.131-9.869 22-22 22s-22-9.869-22-22c0-7.709 4.079-14.87 10.673-18.843.99.537 2.123.843 3.327.843 3.86 0 7-3.14 7-7s-3.14-7-7-7c-3.515 0-6.424 2.606-6.918 5.986C7.77 12.336 2 22.248 2 33c0 16.542 13.458 30 30 30s30-13.458 30-30c0-10.752-5.77-20.664-15.082-26.014zm8.616 21.332c1.958 1.422 3.498 3.045 4.466 4.712a27.932 27.932 0 0 1-.964 7.245c-.678-1.843-1.728-3.717-3.104-5.553.04-.57.068-1.143.068-1.722 0-1.588-.161-3.155-.466-4.682zm-.774-2.891a24.11 24.11 0 0 0-2.822-5.761c2.352.563 4.394 1.47 5.927 2.637a27.965 27.965 0 0 1 1.894 7.07c-1.333-1.445-3.022-2.776-4.999-3.946zM35 8c0-2.757 2.243-5 5-5s5 2.243 5 5-2.243 5-5 5-5-2.243-5-5zm10.03 4.856a6.983 6.983 0 0 0 1.846-3.568 28.012 28.012 0 0 1 9.371 9.733c-1.783-.822-3.851-1.404-6.123-1.728a23.984 23.984 0 0 0-5.094-4.437zm10.508 24.83c1.262 2.06 2.061 4.145 2.318 6.052a28.008 28.008 0 0 1-3.661 6.304c.076-1.956-.177-4.082-.744-6.297a23.854 23.854 0 0 0 2.087-6.059zm-3.588 8.638c.379 2.383.322 4.612-.168 6.473a28.184 28.184 0 0 1-5.802 4.448c.822-1.783 1.403-3.851 1.727-6.122a24.221 24.221 0 0 0 4.243-4.799zm-9.259 12.55a27.737 27.737 0 0 1-7.061 1.883c1.441-1.33 2.768-3.015 3.937-4.986a23.932 23.932 0 0 0 5.767-2.826c-.565 2.353-1.474 4.396-2.643 5.929zm-6.012-2.335c-1.421 1.956-3.043 3.493-4.708 4.461a27.932 27.932 0 0 1-7.245-.964c1.843-.678 3.717-1.728 5.553-3.104.569.04 1.142.068 1.721.068a24.05 24.05 0 0 0 4.679-.461zm-15.417 2.317a28.063 28.063 0 0 1-6.314-3.668c.235.009.468.022.707.022 1.759 0 3.645-.26 5.598-.76a23.818 23.818 0 0 0 6.061 2.088c-2.059 1.261-4.144 2.061-6.052 2.318zM4.243 36.63c1.33 1.441 3.015 2.768 4.986 3.937a23.932 23.932 0 0 0 2.826 5.767c-2.354-.564-4.397-1.473-5.93-2.642a27.795 27.795 0 0 1-1.882-7.062zm4.218 1.049c-1.956-1.421-3.493-3.042-4.46-4.708.003-2.479.338-4.909.965-7.24.678 1.84 1.726 3.711 3.1 5.545A24.068 24.068 0 0 0 8 33c0 1.601.161 3.165.461 4.679zm.005-9.359c-1.262-2.058-2.061-4.141-2.32-6.048a28.049 28.049 0 0 1 3.66-6.324c-.077 1.96.176 4.091.745 6.311a23.997 23.997 0 0 0-2.085 6.061zM24 3c2.757 0 5 2.243 5 5s-2.243 5-5 5-5-2.243-5-5 2.243-5 5-5zm-6.876 6.288a6.971 6.971 0 0 0 1.846 3.568 24.032 24.032 0 0 0-6.919 6.826c-.38-2.386-.323-4.619.167-6.482a28.029 28.029 0 0 1 4.906-3.912zM7.756 46.981c1.783.822 3.851 1.403 6.122 1.727a24.143 24.143 0 0 0 4.8 4.243c-2.383.379-4.612.322-6.474-.168a28.141 28.141 0 0 1-4.448-5.802z"></path></svg> 