<?xml version="1.0" encoding="UTF-8"?> <svg xmlns="http://www.w3.org/2000/svg" viewBox="0 0 64 64"><path d="M58.639 18.435c.065-.106.13-.205.195-.317.676-1.233 1.127-2.767 1.174-3.56.028-.765-.355-2.35-.875-3.616-.457-1.086-1.455-2.908-3.01-2.919-1.096 0-2.317.793-3.331 2.151-1.029 1.29-1.646 2.752-1.692 4.015-.054 1.025.306 2.221 1.061 3.635-.925 1.094-1.535 2.32-1.658 3.437a7.774 7.774 0 0 0 .117 2.105c.103.51.288 1.034.509 1.55a8.01 8.01 0 0 0-1.043 1.219c-.388.562-.782 1.169-.974 1.865-.298.97-.227 2.188.175 3.679-1.102.754-1.979 1.712-2.421 2.713-.477.947-.618 2.213-.453 3.569-2.823 1.212-3.62 2.914-3.983 5.433-2.579.5-4.076 1.585-5.059 4.185-2.638-.261-3.974.382-5.249 1.772-.477-.513-1.117-1.041-1.92-1.344-.809-.307-1.881-.372-3.249-.222-.558-1.352-.939-1.888-1.841-2.75l-.038-.034c-.865-.746-2.093-1.088-3.227-1.312-.36-2.496-1.173-4.163-4.055-5.384.133-1.509-.018-2.701-.493-3.593a.314.314 0 0 0-.014-.025c-.377-.661-.753-1.173-1.183-1.613a8.212 8.212 0 0 0-1.232-.999c.284-1.149.493-2.508.133-3.679-.185-.637-.532-1.277-1.013-1.88a10.238 10.238 0 0 0-1.028-1.194c1.152-2.719.696-5.023-1.057-7.09.582-1.119 1.055-2.348 1.012-3.601-.045-1.273-.663-2.738-1.691-4.013-.636-.804-1.92-2.106-3.359-2.143-1.664.02-2.647 2.072-2.987 2.939-.516 1.261-.898 2.847-.871 3.61.026.766.476 2.369 1.4 3.869-.549 1.559-.774 3.324-.697 4.002.088 1.027 1.243 2.93 1.867 3.77-.442 1.764-.373 3.403-.138 4.218.298.912 1.216 2.42 2.317 3.474-.067 1.056-.046 3.329.505 4.216.462.915 2.023 2.494 2.928 3.096.151 1.113.647 3.323 1.363 4.09.475.606 2.031 1.832 3.206 2.294.132.057.248.097.372.146.621 1.786 1.725 3.222 2.241 3.652.728.733 2.792 1.316 3.854 1.534.147.019.266.016.406.029.082.113.164.225.24.324.417.572.972 1.125 1.685 1.68.648.523 1.194.852 1.583.964 2.319.785 5.126-.165 5.226-.178.223.063.457.122.707.174a9.58 9.58 0 0 0 1.767.161c1.129 0 2.101-.186 2.626-.378.691-.326 2.143-1.34 3.051-2.618.1-.121.193-.251.286-.381.148-.02.293-.035.447-.063.688-.144 1.452-.37 2.156-.639a5.91 5.91 0 0 0 1.537-.875c.572-.485 1.615-1.86 2.129-3.362.05-.13.074-.244.117-.369.143-.056.281-.106.43-.171 1.305-.647 2.636-1.699 3.105-2.282.642-.756 1.107-2.714 1.284-3.763.022-.143.035-.267.051-.395.113-.083.228-.161.337-.257 2.534-2.069 3.283-3.368 3.016-7.073.944-.903 2.047-2.691 2.287-3.523.141-.488.169-1.229.174-1.611.02-.713-.131-1.516-.276-2.227-.027-.122-.059-.229-.088-.345.07-.094.14-.183.21-.284.757-1.086 1.588-2.657 1.617-3.467.088-.766-.17-2.39-.586-3.695-.035-.115-.074-.219-.112-.326zm-5.541-4.167c.029-.833.499-1.897 1.276-2.872.748-1 1.47-1.374 1.728-1.375.164.035.689.512 1.185 1.688.497 1.211.735 2.451.725 2.752-.015.25-.19 1.026-.537 1.869-.44-.455-.954-.724-1.488-.76-.594-.043-1.229.145-1.869.541-.148.087-.295.204-.442.308-.412-.858-.608-1.573-.577-2.13l-.001-.021zm3.271 3.93c-.347.415-.586.554-.656.565-.189-.021-.549-.24-.953-.67.128-.094.257-.194.384-.269.412-.253.631-.253.69-.261.038.01.188.098.36.347.06.086.118.182.175.288zm-7.071 22.12c-.021.001-.028 0-.027.001-.186-.121-.399-.498-.572-1.039.303-.068.879-.164 1.157-.024.032.1.156.118.238.816-.102.046-.446.246-.796.246zm-3.751 5.979c-.502.118-.767.091-.827.063-.154-.161-.284-.58-.343-1.142.791.017 1.08.173 1.147.227.006.1.156.094.023.852zm-5.929 4.938c-.487-.02-.766-.117-.822-.164-.102-.198-.11-.639-.013-1.202.691.202.948.405 1.029.515.037.105-.004.42-.194.851zm-7.405 1.259c.289.293.61.639.651.827-.01.113-.195.431-.614.689-.923-.554-.782-.597-.037-1.516zm-6.604-1.211c-.055.058-.308.165-.832.192a2.426 2.426 0 0 1-.136-.314c-.111-.358-.078-.507-.083-.507.087-.127.345-.338 1.042-.56.106.569.097 1.005.009 1.189zm-6.844-4.651c-.096-.509-.05-.765-.012-.825.14-.119.548-.246 1.18-.277-.052.579-.183.993-.324 1.147-.071.04-.338.072-.844-.045zm-4.628-6.162c.064-.855.144-1.042 1.391-.787-.166.525-.371.899-.542 1.014-.099.031-.408-.03-.849-.227zM7.886 10.473h.002c.789 0 2.965 2.326 3.031 4.227.026.742-.256 1.457-.549 2.137-.773-.528-1.586-.844-2.319-.817-.384.018-.947.182-1.498.782-.195-.452-.531-1.464-.544-1.85-.032-.864 1.038-4.291 1.877-4.479zm1.42 8.052c-.416.455-.776.665-.954.688-.082-.012-.329-.154-.685-.581.161-.321.326-.551.48-.614l.033-.001c.297 0 .702.201 1.126.508zm-2.343 2.182c1.317.961 2.612.442 3.744-.759.901 1.251 1.151 2.48.603 4.133-1.429-.8-2.822-.923-3.791.38-.906-1.537-1.017-1.826-.556-3.754zm3.43 5.156c-.383.514-.729.772-.905.816-.078-.005-.317-.115-.674-.466.203-.492.386-.692.447-.724a.56.56 0 0 1 .088-.007c.212.001.586.12 1.044.381zm-2.038 4.433c-.103-.36-.124-1.557-.065-1.969.516.301 1.062.441 1.645.299.824-.199 1.495-.839 1.993-1.486.466.538.973 1.175 1.158 1.818l.006.019c.19.612.084 1.472-.053 2.144-.801-.291-1.614-.51-2.448-.234-.531.172-.947.554-1.253 1.113-.529-.71-.89-1.42-.983-1.704zm4.043 2.716c-.283.525-.567.831-.727.899-.089.009-.355-.063-.788-.37.193-.814.253-1.001 1.515-.529zm-1.659 2.712c1.522.583 2.626-.297 3.4-1.724 1.474 1.169 1.77 2.198 1.703 3.711-1.615-.315-2.935-.052-3.477 1.508-1.429-1.385-1.556-1.706-1.626-3.495zm3.674 6.933c.591.105 1.148.058 1.655-.281.702-.466 1.113-1.289 1.359-2.054 1.703.858 2.11 1.765 2.375 3.208-.83.042-1.725.226-2.342.75-.429.362-.665.872-.726 1.513-1.746-1.09-1.928-1.538-2.321-3.136zm5.114 6.105-.029-.067c.765-.034 1.255-.313 1.551-.634.564-.605.792-1.488.871-2.319.654.173 1.362.364 1.832.759.604.578.851.896 1.208 1.699-.839.271-1.605.67-2.056 1.332-.303.446-.402.996-.303 1.642-.958-.279-1.667-.611-1.868-.79-.343-.291-.947-1.195-1.206-1.622zm6.563 4.47c.609-.211 1.059-.55 1.303-1.052.357-.73.316-1.654.166-2.455 1.02-.077 1.611.03 1.936.153.464.175.939.551 1.379 1.089l-.361.45c-.384.472-.77.985-.892 1.633-.096.557.055 1.12.384 1.604-1.896.129-2.528-.077-3.915-1.422zm10.614 1.082c-.328.118-1.221.258-2.212.216.409-.679.415-1.249.327-1.613-.168-.817-.813-1.461-1.383-2.029l-.001-.001c1.015-1.215 1.79-1.417 3.365-1.353-.143.809-.16 1.718.215 2.446.247.489.722.825 1.339 1.031-.687.71-1.447 1.204-1.65 1.303zm6.978-4.28a3.929 3.929 0 0 1-.991.557c-.294.113-.6.215-.902.306.084-.602.005-1.176-.328-1.641-.469-.664-1.257-1.052-2.086-1.3.599-1.398 1.162-2.021 3.01-2.514.084.805.314 1.7.89 2.299.378.397.907.6 1.568.619-.43.846-.969 1.509-1.161 1.674zm3.886-4.616c-.089-.646-.336-1.152-.751-1.498-.533-.443-1.296-.67-2.342-.699.034-.257.08-.51.143-.749.129-.487.311-.881.54-1.171.009-.011.018-.022.025-.034.354-.487.932-.94 1.625-1.296.255.777.676 1.576 1.383 2.031.325.208.7.313 1.121.313.169 0 .346-.017.53-.051-.235.977-.517 1.682-.657 1.86-.193.24-.845.801-1.617 1.294zm5.6-8.177c-.115.23-.628.882-1.324 1.557-.221-.613-.568-1.054-1.048-1.304-.629-.328-1.461-.372-2.45-.168-.094-1.482.323-2.642 1.677-3.726.533.97 1.365 1.888 2.472 1.888.298 0 .613-.071.941-.2-.038.994-.176 1.761-.268 1.953zm-1.41-4.645c.485-.2.806-.267.983-.267.08 0 .135.01.17.021.054.1.226.153.377.759-.436.314-.697.388-.779.381-.176-.069-.466-.372-.751-.894zm4.021-2.76c-.072.251-.451.971-.984 1.72-.329-.566-.749-.941-1.261-1.105-.782-.249-1.637-.075-2.442.246-.241-1.091-.182-1.749-.066-2.121l.012-.038c.107-.397.401-.845.703-1.282.122-.184.269-.365.422-.542.499.643 1.171 1.276 1.995 1.469.148.035.298.053.448.053.394 0 .795-.125 1.202-.365.046.308.074.606.067.867-.007.63-.065.993-.096 1.098zm-2.086-4.405c.47-.273.85-.395 1.051-.395.026 0 .05.002.069.005.074.035.26.235.463.719-.36.358-.595.47-.66.476-.19-.043-.539-.298-.923-.805zm1.486-2.353c-.834-.146-1.699.176-2.407.575a5.65 5.65 0 0 1-.189-.676 5.755 5.755 0 0 1-.09-1.514c.07-.594.382-1.284.859-1.947 1.136 1.195 2.421 1.7 3.735.735.216.929.291 1.742.258 2.043-.02.208-.296.899-.775 1.715-.389-.522-.853-.839-1.391-.931z"></path></svg> 