<?xml version="1.0" encoding="UTF-8"?> <svg xmlns="http://www.w3.org/2000/svg" viewBox="0 0 64 64"><path d="M37.02 21.416a.998.998 0 0 0 .916 0c.779-.401 7.622-4.04 7.882-8.043.293-4.517-5.537-6.55-8.34-3.194-2.805-3.352-8.632-1.326-8.34 3.194.26 4.004 7.102 7.642 7.882 8.043zm-3.631-10.887a2.852 2.852 0 0 1 2.59.976 2.007 2.007 0 0 0 2.998 0 2.838 2.838 0 0 1 2.59-.976 2.587 2.587 0 0 1 2.255 2.713c-.133 2.049-3.786 4.744-6.345 6.153-2.558-1.407-6.21-4.1-6.343-6.153a2.587 2.587 0 0 1 2.255-2.713zM40.165 25.041a20.16 20.16 0 0 1-2.162 2.162 12.888 12.888 0 0 0-1.563 16.002l-7.178 7.168a3.001 3.001 0 0 0 4.245 4.244l7.171-7.171a12.89 12.89 0 0 0 16.01-1.569 19.403 19.403 0 0 1 2.154-2.16c10.246-11.248-7.43-28.925-18.677-18.676zm-8.072 28.162a1.001 1.001 0 0 1-1.416-1.415l6.968-6.958a10.677 10.677 0 0 0 1.411 1.41zm7.634-9.049a11.235 11.235 0 0 1-2.554-12.156c-.597 7.632 7.015 15.33 14.707 14.712a11.23 11.23 0 0 1-12.152-2.556zm17.7-1.851c-3.69 3.69-10.245 3.136-14.615-1.233-10.251-11.218 2.776-23.388 13.382-13.382 4.37 4.369 4.923 10.925 1.234 14.615z"></path><path d="M47.95 41.08a1.001 1.001 0 0 0-.79 1.84 1.001 1.001 0 0 0 .79-1.84zM44.91 39.01a.998.998 0 1 0-1.39 1.43.998.998 0 1 0 1.39-1.43zM54.68 40.7a.998.998 0 0 0 1.18 1.61.998.998 0 0 0-1.18-1.61zM42.92 27.85a.996.996 0 0 0-1.16 1.62.996.996 0 0 0 1.16-1.62zM56.73 34.47a1.001 1.001 0 0 0 1.96-.41 1.001 1.001 0 0 0-1.96.41zM55.27 31.15a1.003 1.003 0 0 0 1.65-1.14 1.003 1.003 0 0 0-1.65 1.14zM57.87 37.31a.996.996 0 1 0-.3 1.95.996.996 0 0 0 .3-1.95zM49.36 27.14a1 1 0 0 0 .39-1.96 1 1 0 0 0-.39 1.96zM53.24 28.75a1.01 1.01 0 0 0 .57-1.83.998.998 0 1 0-.57 1.83zM41.51 35.47a.999.999 0 0 0 .8 1.83.999.999 0 0 0-.8-1.83zM41.11 33.45a1 1 0 0 0 .03-2 1 1 0 1 0-.03 2zM45.56 27.33a.997.997 0 1 0-.31-1.95.997.997 0 0 0 .31 1.95zM51.45 41.77a1 1 0 0 0 .08 2 1 1 0 0 0-.08-2zM54.708 33.021a3.334 3.334 0 0 0-2.521-1.325 3.282 3.282 0 0 0-5.724-2.045c-1.776 2.013-.536 6.494-.27 7.37a1 1 0 0 0 .666.668c1.164.434 5.843 1.337 7.373-.27a3.263 3.263 0 0 0 .476-4.398zm-1.799 2.899c-.796.7-3.206.443-4.946 0-.566-2.126-1.032-6.383 1.688-5.153.94.654.144 1.766.975 2.488.728.834 1.835.03 2.49.975a1.258 1.258 0 0 1-.207 1.69zM4.601 31.216a12.858 12.858 0 0 0 16.072 6.388l5.463 8.53a2.998 2.998 0 0 0 5.056-3.223l-5.469-8.552a12.824 12.824 0 0 0 .94-17.255 10.508 10.508 0 0 0-8.382-6.037C7.411 9.342-2.749 22.51 4.601 31.217zm25.038 13.527a1.003 1.003 0 0 1-1.817.318l-5.303-8.283a12.091 12.091 0 0 0 1.68-1.09l5.307 8.298a1 1 0 0 1 .133.757zm-7.337-10.156a11.22 11.22 0 0 1-12.428-.125c7.4 2.23 16.417-3.503 17.543-11.166a11.237 11.237 0 0 1-5.115 11.29zM9.759 14.97c4.546-3.064 11.555-2.794 14.538 1.933 3.041 4.692.345 11.163-4.342 14.009-5.205 3.328-11.727 2.461-14.538-1.933-2.812-4.396-.863-10.68 4.342-14.01z"></path><path d="M6.45 21.98a.998.998 0 1 0-.5-1.32 1.006 1.006 0 0 0 .5 1.32zM7.03 27.91a1.02 1.02 0 0 0-.09 1.42 1.002 1.002 0 1 0 .09-1.42zM18.37 28.43a1 1 0 1 0 1.02 1.72 1 1 0 1 0-1.02-1.72zM6.14 26a.996.996 0 1 0-.08-1.99.996.996 0 0 0 .08 1.99zM23.08 19.89a.997.997 0 1 0-.39-1.92.997.997 0 0 0 .39 1.92zM14.94 29.82a.998.998 0 0 0 .37 1.96.998.998 0 0 0-.37-1.96zM22.48 22.67a1.003 1.003 0 0 0 1.97.37 1.003 1.003 0 0 0-1.97-.37zM19.93 16.79a1.002 1.002 0 0 0 1.01-1.73 1.002 1.002 0 0 0-1.01 1.73zM21.26 27.34a1 1 0 0 0 1.17-1.62 1 1 0 0 0-1.17 1.62zM16.55 15.9a1 1 0 0 0 .03-2 1 1 0 0 0-.03 2zM11.37 29.74a.998.998 0 0 0-.51 1.93.998.998 0 0 0 .51-1.93zM12.62 16.66a.999.999 0 1 0-.37-1.93.999.999 0 0 0 .37 1.93zM9.23 18.82a.993.993 0 1 0-.68-1.73.993.993 0 0 0 .68 1.73zM12.813 19.744a3.281 3.281 0 0 0-3.226 5.152c1.191 1.628 4.114 1.891 5.878 1.891.997-.074 1.55.182 2.057-.554.45-.8 2.622-4.91 1.32-7.258a3.281 3.281 0 0 0-6.029.77zm1.904.69a1.272 1.272 0 0 1 2.376-.49c.514.928-.253 3.227-1.062 4.832-2.173.078-6.45-.335-4.67-2.755a1.295 1.295 0 0 1 1.282-.26 1.575 1.575 0 0 0 2.074-1.326z"></path></svg> 