<?xml version="1.0" encoding="UTF-8"?> <svg xmlns="http://www.w3.org/2000/svg" viewBox="-25 0 512 512.009"><path d="M111.203 477.867c60.57.73 110.309-47.695 111.195-108.262 0-48.46-71.617-150.8-96.289-184.62 17.934-6.508 29.34-24.157 27.918-43.18-1.422-19.024-15.328-34.778-34.027-38.551V70.539l6.39-11.2a39.245 39.245 0 0 0-.136-39.585A39.254 39.254 0 0 0 91.96 0C74.469.086 59.074 11.543 53.969 28.273c-.106.344-.188.7-.246 1.055L46.895 70.7a93.3 93.3 0 0 1-14.508 36.805L10.5 140.332a8.536 8.536 0 0 0 2.363 11.836c3.922 2.613 9.223 1.555 11.836-2.363l21.914-32.836a110.12 110.12 0 0 0 17.153-43.524l6.742-40.754A22.74 22.74 0 0 1 91.96 17.066a22.595 22.595 0 0 1 19.625 33.801L104.059 64a8.465 8.465 0 0 0-1.125 4.266v34.988c-18.61 3.77-32.473 19.406-33.989 38.332-1.515 18.926 9.68 36.57 27.453 43.254-21.53 29.5-79.257 111.789-93.261 164.406 0 .066-.043.125-.051.203a81.053 81.053 0 0 0-3.082 20.149c.879 60.574 50.621 109.004 111.2 108.27zm-.426-59.734c-24.18-.86-43.144-21.043-42.507-45.227 0-12.883 17.203-49.765 42.668-91.996 25.457 42.23 42.667 79.113 42.667 91.996.637 24.219-18.386 44.414-42.597 45.227zm7.387-158.106a8.857 8.857 0 0 0-14.504 0c-8.765 14.04-52.5 85.418-52.5 112.836a64.3 64.3 0 0 0 7.195 29.664 90.725 90.725 0 0 1-37.972-51.89c13.219-45.27 63.597-120.082 90.82-157.16 27.211 37.07 77.567 111.84 90.8 157.117a90.808 90.808 0 0 1-38.874 52.504 64.126 64.126 0 0 0 7.543-30.25c0-27.418-43.734-98.801-52.508-112.836zm-6.96 200.774c-44.278.449-82.806-30.207-92.313-73.453a111.568 111.568 0 0 0 91.144 47.785c.305 0 .594.05.903.05h.257a111.657 111.657 0 0 0 92.328-47.898c-9.488 43.274-48.023 73.957-92.32 73.516zM85.866 145.066c0-14.136 11.461-25.597 25.602-25.597 14.136 0 25.597 11.46 25.597 25.597 0 14.141-11.46 25.602-25.597 25.602-14.14 0-25.602-11.461-25.602-25.602zM350.137 512c60.57.73 110.308-47.691 111.195-108.262 0-48.46-71.617-150.8-96.289-184.617 17.934-6.512 29.34-24.16 27.918-43.183-1.422-19.024-15.328-34.778-34.027-38.551v-32.715l6.39-11.195a39.667 39.667 0 0 0-.129-39.586 39.675 39.675 0 0 0-34.3-19.758c-17.493.086-32.891 11.543-37.993 28.273-.105.348-.187.7-.246 1.059l-6.828 41.367a93.3 93.3 0 0 1-14.508 36.805l-21.886 32.828a8.533 8.533 0 0 0 2.363 11.836c3.922 2.613 9.223 1.558 11.836-2.363l21.914-32.836a110.125 110.125 0 0 0 17.152-43.52l6.742-40.758A22.74 22.74 0 0 1 330.895 51.2a22.6 22.6 0 0 1 19.542 11.25A22.603 22.603 0 0 1 350.52 85l-7.528 13.133a8.48 8.48 0 0 0-1.125 4.27v34.984c-18.61 3.773-32.472 19.406-33.988 38.332s9.68 36.57 27.453 43.254c-21.531 29.5-79.258 111.789-93.262 164.406 0 .066 0 .125-.05.203a80.693 80.693 0 0 0-3.082 20.148c.878 60.575 50.62 109.004 111.199 108.27zm-.426-59.734c-24.18-.86-43.145-21.043-42.508-45.227 0-12.883 17.203-49.766 42.668-91.996 25.453 42.23 42.668 79.113 42.668 91.996.637 24.219-18.387 44.418-42.601 45.227zm7.387-158.106a8.854 8.854 0 0 0-14.461 0c-8.766 14.04-52.5 85.422-52.5 112.836a64.3 64.3 0 0 0 7.195 29.664 90.71 90.71 0 0 1-38.016-51.875c13.22-45.27 63.598-120.082 90.82-157.156 27.212 37.066 77.567 111.836 90.802 157.113a90.817 90.817 0 0 1-38.875 52.508 64.142 64.142 0 0 0 7.542-30.254c0-27.433-43.734-98.812-52.507-112.851zm-6.961 200.774c-44.278.449-82.805-30.207-92.317-73.454a111.58 111.58 0 0 0 91.145 47.786c.308 0 .598.05.906.05h.258a111.657 111.657 0 0 0 92.328-47.898c-9.488 43.273-48.023 73.957-92.32 73.516zM324.8 179.199c0-14.136 11.46-25.597 25.597-25.597 14.141 0 25.602 11.46 25.602 25.597 0 14.14-11.46 25.602-25.602 25.602-14.136 0-25.597-11.461-25.597-25.602zm0 0"></path></svg> 