<?xml version="1.0" encoding="UTF-8"?> <svg xmlns="http://www.w3.org/2000/svg" viewBox="0 0 511.998 511.998"><path d="m505.766 123.126-62.361-44.731c-6.705-4.855-11.918-2.702-15.37-1.276-.542.224-30.565 10.625-30.691 10.677-1.309.532-2.455 1.086-3.468 1.677a7.471 7.471 0 0 0-2.051 1.406c-3.231 2.647-4.401 6.193-4.401 12.016l.046 50.534c-34.997-14.409-73.914-16.99-111.344-6.796-18.411-13.556-39.578-23.566-62.493-29.014l29.507-41.088c5.765-8.003 3.003-14.017 2.413-14.952-.459-.981-20.112-29.144-20.42-29.638-2.092-3.357-4.957-7.954-13.221-7.954h-76.765c-8.264 0-11.129 4.597-13.221 7.954-.308.494-20.169 29.016-20.663 30.15a7.432 7.432 0 0 0-.71 1.992c-1.152 4.094-.053 7.687 3.384 12.473l29.47 41.069C57.005 135.796 0 204.677 0 286.644c0 95.789 77.846 173.718 173.531 173.718 15.493 0 30.786-2.051 45.533-6.048.517.377 1.035.755 1.545 1.122 29.801 21.392 64.775 32.577 100.733 32.577 9.476 0 19.021-.777 28.557-2.349 45.758-7.542 85.841-32.476 112.866-70.209 47.712-66.619 41.459-155.869-10.087-215.212l47.86-16.179c7.944-2.681 10.642-6.146 11.1-14.261.007-.129.217-31.907.255-32.49.253-3.945.601-9.349-6.127-14.187zm-71.075-32.522 62.294 44.684c-.016.334-.315 29.47-.315 29.47l-84.557-66.195s22.281-7.842 22.578-7.959zm-32.259 19.43 81.507 63.807-42.712 14.439a174.373 174.373 0 0 0-18.401-15.231 175.746 175.746 0 0 0-20.348-12.591zM135.219 38.985h76.627c.18.278 13.325 19.083 13.325 19.083H121.894s13.145-18.805 13.325-19.083zM119.9 73.068h107.259l-29.804 41.502a174.037 174.037 0 0 0-23.823-1.645c-8.09 0-16.048.57-23.847 1.648zM15 286.644c0-87.518 71.117-158.718 158.531-158.718s158.531 71.201 158.531 158.718c0 47.741-22.116 93.734-59.382 123.958a109.493 109.493 0 0 1-13.873-8.474 108.09 108.09 0 0 1-15.775-13.821c33.653-22.725 53.487-60.087 53.487-101.663 0-28.691-9.856-55.12-26.354-76.076-.045-.076-.083-.155-.131-.23a7.56 7.56 0 0 0-1.222-1.452c-11.692-14.33-26.539-25.981-43.47-33.886a7.57 7.57 0 0 0-1.125-.527c-15.463-7.03-32.625-10.948-50.685-10.948-40.121 0-77.824 19.668-100.898 52.673a171.881 171.881 0 0 0-3.202 4.838 7.5 7.5 0 1 0 12.66 8.046 154.725 154.725 0 0 1 2.879-4.352c20.228-28.933 53.335-46.206 88.562-46.206 11.686 0 22.941 1.875 33.49 5.329a173.6 173.6 0 0 0-26.349 29.176c-20.4 28.489-31.625 62.001-32.462 96.914-.711 29.645 6.044 58.663 19.614 84.694-56.917-2.981-102.309-50.28-102.309-107.995 0-9.314 1.196-18.605 3.554-27.615a7.5 7.5 0 0 0-5.356-9.155 7.497 7.497 0 0 0-9.155 5.356 124.118 124.118 0 0 0-4.043 31.414c0 67.903 55.185 123.146 123.016 123.146 1.164 0 2.183-.011 3.169-.035a172.223 172.223 0 0 0 27.758 32.58 159.875 159.875 0 0 1-30.926 3.027C86.117 445.363 15 374.162 15 286.644zm266.519 0c0 36.968-17.825 70.128-48.007 89.985-25.76-36.578-27.043-87.005.434-125.382 7.643-10.688 16.987-19.727 27.774-26.933 12.465 17.628 19.799 39.137 19.799 62.33zm169.049 120.077c-24.689 34.474-61.308 57.253-103.109 64.143-41.767 6.884-83.708-2.923-118.092-27.605-1.383-.997-2.69-1.939-3.921-2.915l-.108-.084c-15.143-11.561-27.946-25.624-38.061-41.796a7.51 7.51 0 0 0-.388-.631c-33.809-54.692-31.482-123.755 5.981-176.072a158.364 158.364 0 0 1 29.736-31.412 108.611 108.611 0 0 1 29.592 22.309c-11.783 8.071-22.031 18.088-30.45 29.86-32.694 45.664-29.63 106.322 3.642 148.299.283.419.59.813.938 1.156a122.755 122.755 0 0 0 23.735 22.341 124.325 124.325 0 0 0 20.44 11.905l.07.034a121.472 121.472 0 0 0 50.886 11.147c6.72 0 13.494-.552 20.257-1.667 32.425-5.35 60.827-23.023 79.974-49.765a7.5 7.5 0 0 0-12.196-8.732c-16.813 23.482-41.75 39.001-70.219 43.697-17.382 2.867-34.807 1.483-51.081-3.857 37.066-33.002 58.87-80.843 58.87-130.431 0-28.979-7.135-56.318-19.723-80.364 20.503 1.076 40.485 8.007 57.29 20.079 37.872 27.168 54.246 77.086 39.818 121.391a7.5 7.5 0 0 0 14.263 4.645c8.116-24.923 8.045-51.378-.204-76.504-8.243-25.109-23.851-46.452-45.13-61.717-21.779-15.646-48.239-23.734-74.951-23.011a175.037 175.037 0 0 0-27.754-32.568c34.326-6.897 69.499-2.284 100.614 12.992.209.119.423.227.644.325a160.195 160.195 0 0 1 22.151 13.323c71.055 51.005 87.424 150.363 36.486 221.485z"></path></svg> 